<svg width="102" height="90" viewBox="0 0 102 90" fill="none" xmlns="http://www.w3.org/2000/svg">
<path d="M30.9869 42.944H7.12342C7.53047 19.1825 12.2116 15.2646 26.8146 6.61476C28.4937 5.59712 29.0534 3.4601 28.0358 1.73013C27.069 0.0510332 24.8811 -0.508664 23.202 0.508967C6.00403 10.6853 0 16.8928 0 46.4548V73.88C0 82.5808 7.07254 89.6024 15.7224 89.6024H30.9869C39.942 89.6024 46.7093 82.8352 46.7093 73.88V58.6155C46.7093 49.7113 39.942 42.944 30.9869 42.944Z" fill="#ECC92C"/>
<path d="M86.0336 42.944H62.1702C62.5772 19.1825 67.2583 15.2646 81.8613 6.61476C83.5404 5.59712 84.1001 3.4601 83.0825 1.73013C82.0648 0.0510332 79.9278 -0.508664 78.1979 0.508967C60.9999 10.6853 54.9958 16.8928 54.9958 46.5057V73.9309C54.9958 82.6316 62.0684 89.6533 70.7183 89.6533H85.9827C94.9379 89.6533 101.705 82.886 101.705 73.9309V58.6664C101.756 49.7113 94.9888 42.944 86.0336 42.944Z" fill="#ECC92C"/>
</svg>
